<svg id="Layer_1" data-name="Layer 1" xmlns="http://www.w3.org/2000/svg" viewBox="0 0 97.3 77.36"><defs><style>.cls-1,.cls-2{fill:#f27507;}.cls-1{stroke:#2d4459;}.cls-3{fill:#2d4459;}</style></defs><g id="Group_24" data-name="Group 24"><path id="Path_38" data-name="Path 38" class="cls-1" d="M339.44,233.33l-30.64,6.84-1-11" transform="translate(-259.38 -196.12)"/></g><g id="Polygon_10" data-name="Polygon 10"><path class="cls-2" d="M278.79,271.83l5.64-17,.18-.49-.39-.36-12.89-12.06,37.32,1.93h0l41.41-5.68-39.23,14.42h0Z" transform="translate(-259.38 -196.12)"/><path class="cls-3" d="M343.71,239.77l-34.89,4.81-35.51-1.93,12.18,11.64-5.29,16,30.49-18.23,33-12.28m13-3.23-45.39,16.71-33.74,20.24,6.25-18.78-14.33-13.65,39.29,2Z" transform="translate(-259.38 -196.12)"/></g><g id="Polygon_9" data-name="Polygon 9"><path class="cls-2" d="M337.88,197.76l-5.94,16.88-.19.49.39.36,12.67,12.28-37.27-2.58h0l-41.5,5,39.47-13.74h0Z" transform="translate(-259.38 -196.12)"/><path class="cls-3" d="M272.41,228.68l35-4.2L342.85,227l-12-11.85,5.58-15.9L305.64,217l-33.23,11.7m-13,3,45.68-15.92,34.09-19.65-6.58,18.67,14.09,13.89L307.42,226Z" transform="translate(-259.38 -196.12)"/></g></svg>