<svg id="Layer_1" data-name="Layer 1" xmlns="http://www.w3.org/2000/svg" viewBox="0 0 115.55 91.88"><defs><style>.cls-1,.cls-2{fill:#f27507;}.cls-1{stroke:#2d4459;}.cls-3{fill:#2d4459;}</style></defs><g id="Group_24" data-name="Group 24"><path id="Path_38" data-name="Path 38" class="cls-1" d="M354.46,240.31l-36.39,8.13-1.19-13.09" transform="translate(-259.38 -196.12)"/></g><g id="Polygon_10" data-name="Polygon 10"><path class="cls-2" d="M282.43,286l6.7-20.16.21-.59-.46-.42-15.3-14.32,44.31,2.29h0l49.18-6.75-46.59,17.13h0Z" transform="translate(-259.38 -196.12)"/><path class="cls-3" d="M359.53,248l-41.43,5.71-42.18-2.29,14.47,13.82-6.29,19,36.21-21.65L359.53,248m15.41-3.84L321,264,281,288l7.42-22.3-17-16.21L318,251.91Z" transform="translate(-259.38 -196.12)"/></g><g id="Polygon_9" data-name="Polygon 9"><path class="cls-2" d="M352.61,198.06l-7.06,20.05-.22.58.46.43,15,14.59-44.27-3.07h0l-49.28,5.89,46.88-16.31h0Z" transform="translate(-259.38 -196.12)"/><path class="cls-3" d="M274.85,234.79l41.53-5,42.13,3-14.22-14.07,6.62-18.89-36.59,21-39.47,13.9m-15.47,3.57,54.25-18.9,40.48-23.34-7.81,22.17L363,234.79l-46.61-3.23Z" transform="translate(-259.38 -196.12)"/></g></svg>