<svg id="Layer_1" data-name="Layer 1" xmlns="http://www.w3.org/2000/svg" viewBox="0 0 500.15 193.72"><defs><style>.cls-1,.cls-2{fill:#f27507;}.cls-1{stroke:#2d4459;}.cls-3,.cls-4{fill:#2d4459;}.cls-4,.cls-5{isolation:isolate;font-family:ColunaRounded-CondensedBold, Coluna Rounded;font-weight:700;}.cls-4{font-size:92.67px;}.cls-5{font-size:32.44px;fill:#ee7512;}</style></defs><g id="Group_24" data-name="Group 24"><path id="Path_38" data-name="Path 38" class="cls-1" d="M189.26,252.88,117.16,269l-2.37-25.91" transform="translate(-0.85 -153.67)"/></g><g id="Polygon_10" data-name="Polygon 10"><path class="cls-2" d="M46.6,343.5l13.29-40,.41-1.16-.91-.82L29.06,273.16l87.82,4.54h0l97.45-13.37-92.32,34h0Z" transform="translate(-0.85 -153.67)"/><path class="cls-3" d="M199.33,268.05l-82.11,11.38L33.63,274.8l28.66,27.39L49.85,339.83l71.76-42.93L199.33,268m30.52-7.61L123,299.73,43.62,347.4l14.71-44.19L24.59,271.09l92.46,4.78Z" transform="translate(-0.85 -153.67)"/></g><g id="Polygon_9" data-name="Polygon 9"><path class="cls-2" d="M185.61,169.17l-14,39.72-.43,1.16.89.85,29.83,28.9-87.72-6.07h0L16.51,245.45,109.42,213h0Z" transform="translate(-0.85 -153.67)"/><path class="cls-3" d="M31.51,242l82.3-9.87,83.49,6-28.2-27.88,13.13-37.41-72.5,41.7L31.51,242M.85,249.08l107.53-37.51,80.21-46.25-15.44,43.93L206.31,242l-92.37-6.4Z" transform="translate(-0.85 -153.67)"/></g><text class="cls-4" transform="translate(228.62 79.7)">Game Hub</text><text class="cls-5" transform="translate(250.22 115.15)">The universe of games</text></svg>