<svg id="Layer_1" data-name="Layer 1" xmlns="http://www.w3.org/2000/svg" viewBox="0 0 46.62 37.06"><defs><style>.cls-1,.cls-2{fill:#f27507;}.cls-1{stroke:#2d4459;}.cls-3{fill:#2d4459;}</style></defs><g id="Group_24" data-name="Group 24"><path id="Path_38" data-name="Path 38" class="cls-1" d="M301.74,296.24l-14.68,3.29-.48-5.28" transform="translate(-263.38 -278.42)"/></g><g id="Polygon_10" data-name="Polygon 10"><path class="cls-2" d="M272.68,314.69l2.71-8.13.08-.24-.19-.17-6.17-5.78,17.88.93h0l19.84-2.73L288,305.48h0Z" transform="translate(-263.38 -278.42)"/><path class="cls-3" d="M303.79,299.33l-16.72,2.3-17-.92,5.84,5.58L273.36,314l14.6-8.74,15.83-5.88m6.21-1.55-21.75,8-16.16,9.7,3-9L268.21,300l18.83,1Z" transform="translate(-263.38 -278.42)"/></g><g id="Polygon_9" data-name="Polygon 9"><path class="cls-2" d="M301,279.2l-2.84,8.09-.09.24.18.17,6.07,5.88-17.86-1.23h0l-19.88,2.37,18.91-6.58h0Z" transform="translate(-263.38 -278.42)"/><path class="cls-3" d="M269.62,294l16.76-2,17,1.22-5.74-5.68,2.68-7.62-14.76,8.48L269.62,294m-6.24,1.44,21.89-7.63,16.33-9.41-3.15,8.94L305.2,294l-18.8-1.3Z" transform="translate(-263.38 -278.42)"/></g></svg>