<svg id="Layer_1" data-name="Layer 1" xmlns="http://www.w3.org/2000/svg" viewBox="0 0 148.25 117.88"><defs><style>.cls-1,.cls-2{fill:#f27507;}.cls-1{stroke:#2d4459;}.cls-3{fill:#2d4459;}</style></defs><g id="Group_24" data-name="Group 24"><path id="Path_38" data-name="Path 38" class="cls-1" d="M355.36,243.81l-46.68,10.43-1.53-16.78" transform="translate(-233.38 -187.12)"/></g><g id="Polygon_10" data-name="Polygon 10"><path class="cls-2" d="M263,302.48l8.6-25.88.27-.75-.59-.53-19.64-18.38,56.86,2.94h0l63.09-8.66-59.77,22h0Z" transform="translate(-233.38 -187.12)"/><path class="cls-3" d="M361.88,253.63,308.72,261,254.6,258l18.56,17.73-8.06,24.37,46.46-27.79,50.32-18.7m19.76-4.93-69.17,25.46L261.07,305l9.52-28.61L248.75,255.6l59.86,3.09Z" transform="translate(-233.38 -187.12)"/></g><g id="Polygon_9" data-name="Polygon 9"><path class="cls-2" d="M353,189.61l-9.06,25.72-.28.75.58.55,19.31,18.71-56.79-3.93h0L243.52,239,303.67,218h0Z" transform="translate(-233.38 -187.12)"/><path class="cls-3" d="M253.23,236.73l53.28-6.39,54.06,3.87-18.26-18.05,8.5-24.22-46.94,27-50.64,17.83m-19.85,4.58L303,217.06l51.93-29.94-10,28.44,21.47,21.17-59.8-4.14Z" transform="translate(-233.38 -187.12)"/></g></svg>