<svg id="Layer_1" data-name="Layer 1" xmlns="http://www.w3.org/2000/svg" viewBox="0 0 89.38 71.06"><defs><style>.cls-1,.cls-2{fill:#f27507;}.cls-1{stroke:#2d4459;}.cls-3{fill:#2d4459;}</style></defs><g id="Group_24" data-name="Group 24"><path id="Path_38" data-name="Path 38" class="cls-1" d="M348.88,238.45l-28.14,6.29-.92-10.12" transform="translate(-275.34 -204.27)"/></g><g id="Polygon_10" data-name="Polygon 10"><path class="cls-2" d="M293.17,273.82l5.19-15.6.16-.46-.36-.32-11.84-11.08,34.28,1.77h0l38-5.22-36,13.25h0Z" transform="translate(-275.34 -204.27)"/><path class="cls-3" d="M352.81,244.37l-32.05,4.41L288.13,247l11.2,10.69-4.87,14.69,28-16.75,30.34-11.27m11.91-3L323,256.74l-31,18.6,5.74-17.25-13.16-12.54,36.09,1.87Z" transform="translate(-275.34 -204.27)"/></g><g id="Polygon_9" data-name="Polygon 9"><path class="cls-2" d="M347.45,205.77,342,221.28l-.17.45.35.33,11.65,11.28L319.58,231h0l-38.12,4.56,36.26-12.62h0Z" transform="translate(-275.34 -204.27)"/><path class="cls-3" d="M287.31,234.18l32.12-3.86L352,232.66l-11-10.88,5.12-14.61-28.29,16.26-30.53,10.75m-12,2.76,42-14.62,31.3-18-6,17.15,12.95,12.76-36-2.5Z" transform="translate(-275.34 -204.27)"/></g></svg>