<?xml version="1.0" encoding="utf-8"?>
<!-- Generator: Adobe Illustrator 25.4.1, SVG Export Plug-In . SVG Version: 6.00 Build 0)  -->
<svg version="1.1" id="Component_9_1" xmlns="http://www.w3.org/2000/svg" xmlns:xlink="http://www.w3.org/1999/xlink" x="0px"
	 y="0px" viewBox="0 0 72.3 53.2" style="enable-background:new 0 0 72.3 53.2;" xml:space="preserve">
<style type="text/css">
	.st0{fill:#F27507;stroke:#2D4459;stroke-width:0.9999;stroke-miterlimit:3.9998;}
	.st1{fill:#F27507;}
	.st2{fill:#2D4459;}
</style>
<g id="Group_24" transform="matrix(-0.951, -0.309, 0.309, -0.951, 5133.209, 1654.249)">
	<path id="Path_38" class="st0" d="M5330.7-19.5l18.6-11l3,7"/>
</g>
<g id="Polygon_10" transform="translate(66.775 16.658) rotate(76)">
	<path class="st1" d="M22.1,57.9l-10.4-6.6l-0.3-0.2l-0.3,0.2L0.9,57.9l7.5-24.6l0,0l0,0l3.1-28.6l3.1,28.6l0,0l0,0L22.1,57.9z"/>
	<path class="st2" d="M11.5,9.2L8.9,33.3L1.7,56.7l9.8-6.2l9.8,6.2l-7.1-23.4L11.5,9.2 M11.5,0l3.6,33.1L23,59l-11.5-7.3L0,59
		l7.9-25.9L11.5,0z"/>
</g>
<g id="Polygon_9" transform="translate(5.174 35.683) rotate(-103)">
	<path class="st1" d="M22.1,57.9l-10.4-6.6l-0.3-0.2l-0.3,0.2L0.9,57.9l7.5-24.6l0,0l0,0l3.1-28.6l3.1,28.6l0,0l0,0L22.1,57.9z"/>
	<path class="st2" d="M11.5,9.2L8.9,33.3L1.7,56.7l9.8-6.2l9.8,6.2l-7.1-23.4L11.5,9.2 M11.5,0l3.6,33.1L23,59l-11.5-7.3L0,59
		l7.9-25.9L11.5,0z"/>
</g>
</svg>
